MFile 1 27 384
MTrk
0 TimeSig 4/4 96 8
0 SeqSpec 00 00 41
0 Tempo 451127
0 Meta TrkEnd
TrkEnd
MTrk
0 Meta TrkName "(---o---)"
0 Par ch=1 c=0 v=0
0 PrCh ch=1 p=0
0 KeySig 0 major
1536 On ch=1 n=72 v=127
1920 Off ch=1 n=72 v=127
1920 On ch=1 n=74 v=127
2304 Off ch=1 n=74 v=127
2304 On ch=1 n=76 v=127
2688 Off ch=1 n=76 v=127
2688 On ch=1 n=84 v=127
3072 Off ch=1 n=84 v=127
3072 On ch=1 n=83 v=127
3456 Off ch=1 n=83 v=127
3648 On ch=1 n=81 v=127
3744 Off ch=1 n=81 v=127
3744 On ch=1 n=79 v=127
3840 Off ch=1 n=79 v=127
3840 On ch=1 n=77 v=127
4224 Off ch=1 n=77 v=127
4800 On ch=1 n=77 v=127
4992 Off ch=1 n=77 v=127
4992 On ch=1 n=79 v=127
5184 Off ch=1 n=79 v=127
5184 On ch=1 n=81 v=127
5376 Off ch=1 n=81 v=127
5376 On ch=1 n=86 v=127
5568 Off ch=1 n=86 v=127
5568 On ch=1 n=84 v=127
5760 Off ch=1 n=84 v=127
5760 On ch=1 n=83 v=127
5952 Off ch=1 n=83 v=127
5952 On ch=1 n=81 v=127
6048 Off ch=1 n=81 v=127
6048 On ch=1 n=83 v=127
6144 Off ch=1 n=83 v=127
6144 On ch=1 n=84 v=127
6336 Off ch=1 n=84 v=127
6720 On ch=1 n=81 v=127
6912 Off ch=1 n=81 v=127
6912 On ch=1 n=79 v=127
7104 Off ch=1 n=79 v=127
7872 On ch=1 n=84 v=127
8064 Off ch=1 n=84 v=127
8064 On ch=1 n=83 v=127
8256 Off ch=1 n=83 v=127
8256 On ch=1 n=84 v=127
8448 Off ch=1 n=84 v=127
8448 On ch=1 n=81 v=127
8832 Off ch=1 n=81 v=127
9408 On ch=1 n=84 v=127
9600 Off ch=1 n=84 v=127
9600 On ch=1 n=83 v=127
9792 Off ch=1 n=83 v=127
9792 On ch=1 n=84 v=127
9984 Off ch=1 n=84 v=127
9984 On ch=1 n=79 v=127
10368 Off ch=1 n=79 v=127
10944 On ch=1 n=84 v=127
11328 Off ch=1 n=84 v=127
11328 On ch=1 n=88 v=127
11520 Off ch=1 n=88 v=127
11520 On ch=1 n=86 v=127
11712 Off ch=1 n=86 v=127
11712 On ch=1 n=84 v=127
11904 Off ch=1 n=84 v=127
11904 On ch=1 n=83 v=127
12096 Off ch=1 n=83 v=127
12096 On ch=1 n=84 v=127
12288 Off ch=1 n=84 v=127
12288 On ch=1 n=86 v=127
13056 Off ch=1 n=86 v=127
13632 On ch=1 n=86 v=127
13728 Off ch=1 n=86 v=127
13728 On ch=1 n=84 v=127
13824 Off ch=1 n=84 v=127
13824 On ch=1 n=83 v=127
15360 Off ch=1 n=83 v=127
15360 On ch=1 n=77 v=127
15744 Off ch=1 n=77 v=127
15936 On ch=1 n=77 v=127
16128 Off ch=1 n=77 v=127
16128 On ch=1 n=79 v=127
16320 Off ch=1 n=79 v=127
16320 On ch=1 n=77 v=127
16512 Off ch=1 n=77 v=127
16512 On ch=1 n=76 v=127
16704 Off ch=1 n=76 v=127
16704 On ch=1 n=74 v=127
16896 Off ch=1 n=74 v=127
16896 On ch=1 n=76 v=127
17152 Off ch=1 n=76 v=127
17472 On ch=1 n=76 v=127
17664 Off ch=1 n=76 v=127
17664 On ch=1 n=77 v=127
17856 Off ch=1 n=77 v=127
17856 On ch=1 n=76 v=127
18048 Off ch=1 n=76 v=127
18048 On ch=1 n=74 v=127
18240 Off ch=1 n=74 v=127
18240 On ch=1 n=72 v=127
18432 Off ch=1 n=72 v=127
18432 On ch=1 n=77 v=127
18624 Off ch=1 n=77 v=127
18624 On ch=1 n=76 v=127
18816 Off ch=1 n=76 v=127
18816 On ch=1 n=74 v=127
19008 Off ch=1 n=74 v=127
19008 On ch=1 n=77 v=127
19200 Off ch=1 n=77 v=127
19200 On ch=1 n=79 v=127
19584 Off ch=1 n=79 v=127
19584 On ch=1 n=81 v=127
19968 Off ch=1 n=81 v=127
19968 On ch=1 n=76 v=127
20160 Off ch=1 n=76 v=127
20160 On ch=1 n=79 v=127
20544 Off ch=1 n=79 v=127
20544 On ch=1 n=77 v=127
20640 Off ch=1 n=77 v=127
20640 On ch=1 n=79 v=127
20736 Off ch=1 n=79 v=127
20736 On ch=1 n=76 v=127
21120 Off ch=1 n=76 v=127
21312 On ch=1 n=76 v=127
21360 On ch=1 n=77 v=127
21376 Off ch=1 n=76 v=127
21392 On ch=1 n=79 v=127
21424 Off ch=1 n=77 v=127
21440 On ch=1 n=81 v=127
21456 Off ch=1 n=79 v=127
21472 On ch=1 n=83 v=127
21504 Off ch=1 n=81 v=127
21504 On ch=1 n=84 v=127
21536 Off ch=1 n=83 v=127
21696 Off ch=1 n=84 v=127
21696 On ch=1 n=83 v=127
21888 Off ch=1 n=83 v=127
21888 On ch=1 n=81 v=127
22080 Off ch=1 n=81 v=127
22080 On ch=1 n=84 v=127
22272 Off ch=1 n=84 v=127
22272 On ch=1 n=83 v=127
22656 Off ch=1 n=83 v=127
22656 On ch=1 n=81 v=127
23040 Off ch=1 n=81 v=127
23040 On ch=1 n=79 v=127
23232 Off ch=1 n=79 v=127
23232 On ch=1 n=82 v=127
23616 Off ch=1 n=82 v=127
23616 On ch=1 n=81 v=127
23808 Off ch=1 n=81 v=127
23808 On ch=1 n=79 v=127
24192 Off ch=1 n=79 v=127
24576 On ch=1 n=81 v=127
24864 On ch=1 n=79 v=127
25088 Off ch=1 n=81 v=127
25120 Off ch=1 n=79 v=127
25152 On ch=1 n=77 v=127
25344 Off ch=1 n=77 v=127
25344 On ch=1 n=83 v=127
25632 On ch=1 n=81 v=127
25856 Off ch=1 n=83 v=127
25888 Off ch=1 n=81 v=127
25920 On ch=1 n=79 v=127
26112 Off ch=1 n=79 v=127
26112 On ch=1 n=84 v=127
26400 On ch=1 n=83 v=127
26624 Off ch=1 n=84 v=127
26656 Off ch=1 n=83 v=127
26688 On ch=1 n=81 v=127
26880 Off ch=1 n=81 v=127
26880 On ch=1 n=86 v=127
27168 On ch=1 n=88 v=127
27392 Off ch=1 n=86 v=127
27424 Off ch=1 n=88 v=127
27456 On ch=1 n=84 v=127
27648 Off ch=1 n=84 v=127
27648 On ch=1 n=86 v=127
28416 Off ch=1 n=86 v=127
28800 On ch=1 n=84 v=127
29184 Off ch=1 n=84 v=127
29184 On ch=1 n=83 v=127
29952 Off ch=1 n=83 v=127
30720 On ch=1 n=72 v=127
31104 Off ch=1 n=72 v=127
31104 On ch=1 n=74 v=127
31488 Off ch=1 n=74 v=127
31488 On ch=1 n=76 v=127
31872 Off ch=1 n=76 v=127
31872 On ch=1 n=84 v=127
32256 Off ch=1 n=84 v=127
32256 On ch=1 n=83 v=127
32640 Off ch=1 n=83 v=127
32832 On ch=1 n=81 v=127
32928 Off ch=1 n=81 v=127
32928 On ch=1 n=79 v=127
33024 Off ch=1 n=79 v=127
33024 On ch=1 n=77 v=127
33408 Off ch=1 n=77 v=127
33984 On ch=1 n=77 v=127
34176 Off ch=1 n=77 v=127
34176 On ch=1 n=79 v=127
34368 Off ch=1 n=79 v=127
34368 On ch=1 n=81 v=127
34560 Off ch=1 n=81 v=127
34560 On ch=1 n=86 v=127
34752 Off ch=1 n=86 v=127
34752 On ch=1 n=84 v=127
34944 Off ch=1 n=84 v=127
34944 On ch=1 n=83 v=127
35136 Off ch=1 n=83 v=127
35136 On ch=1 n=81 v=127
35232 Off ch=1 n=81 v=127
35232 On ch=1 n=83 v=127
35328 Off ch=1 n=83 v=127
35328 On ch=1 n=84 v=127
35520 Off ch=1 n=84 v=127
35904 On ch=1 n=81 v=127
36096 Off ch=1 n=81 v=127
36096 On ch=1 n=79 v=127
36288 Off ch=1 n=79 v=127
37056 On ch=1 n=84 v=127
37248 Off ch=1 n=84 v=127
37248 On ch=1 n=83 v=127
37440 Off ch=1 n=83 v=127
37440 On ch=1 n=84 v=127
37632 Off ch=1 n=84 v=127
37632 On ch=1 n=81 v=127
38016 Off ch=1 n=81 v=127
38592 On ch=1 n=84 v=127
38784 Off ch=1 n=84 v=127
38784 On ch=1 n=83 v=127
38976 Off ch=1 n=83 v=127
38976 On ch=1 n=84 v=127
39168 Off ch=1 n=84 v=127
39168 On ch=1 n=79 v=127
39552 Off ch=1 n=79 v=127
40128 On ch=1 n=84 v=127
40512 Off ch=1 n=84 v=127
40512 On ch=1 n=88 v=127
40704 Off ch=1 n=88 v=127
40704 On ch=1 n=86 v=127
40896 Off ch=1 n=86 v=127
40896 On ch=1 n=84 v=127
41088 Off ch=1 n=84 v=127
41088 On ch=1 n=83 v=127
41280 Off ch=1 n=83 v=127
41280 On ch=1 n=84 v=127
41472 Off ch=1 n=84 v=127
41472 On ch=1 n=86 v=127
42240 Off ch=1 n=86 v=127
42816 On ch=1 n=86 v=127
42912 Off ch=1 n=86 v=127
42912 On ch=1 n=84 v=127
43008 Off ch=1 n=84 v=127
43008 On ch=1 n=83 v=127
44544 Off ch=1 n=83 v=127
44544 On ch=1 n=77 v=127
44928 Off ch=1 n=77 v=127
45120 On ch=1 n=77 v=127
45312 Off ch=1 n=77 v=127
45312 On ch=1 n=79 v=127
45504 Off ch=1 n=79 v=127
45504 On ch=1 n=77 v=127
45696 Off ch=1 n=77 v=127
45696 On ch=1 n=76 v=127
45888 Off ch=1 n=76 v=127
45888 On ch=1 n=74 v=127
46080 Off ch=1 n=74 v=127
46080 On ch=1 n=76 v=127
46336 Off ch=1 n=76 v=127
46656 On ch=1 n=76 v=127
46848 Off ch=1 n=76 v=127
46848 On ch=1 n=77 v=127
47040 Off ch=1 n=77 v=127
47040 On ch=1 n=76 v=127
47232 Off ch=1 n=76 v=127
47232 On ch=1 n=74 v=127
47424 Off ch=1 n=74 v=127
47424 On ch=1 n=72 v=127
47616 Off ch=1 n=72 v=127
47616 On ch=1 n=77 v=127
47808 Off ch=1 n=77 v=127
47808 On ch=1 n=76 v=127
48000 Off ch=1 n=76 v=127
48000 On ch=1 n=74 v=127
48192 Off ch=1 n=74 v=127
48192 On ch=1 n=77 v=127
48384 Off ch=1 n=77 v=127
48384 On ch=1 n=79 v=127
48768 Off ch=1 n=79 v=127
48768 On ch=1 n=81 v=127
49152 Off ch=1 n=81 v=127
49152 On ch=1 n=76 v=127
49344 Off ch=1 n=76 v=127
49344 On ch=1 n=79 v=127
49728 Off ch=1 n=79 v=127
49728 On ch=1 n=77 v=127
49824 Off ch=1 n=77 v=127
49824 On ch=1 n=79 v=127
49920 Off ch=1 n=79 v=127
49920 On ch=1 n=76 v=127
50304 Off ch=1 n=76 v=127
50496 On ch=1 n=76 v=127
50544 On ch=1 n=77 v=127
50560 Off ch=1 n=76 v=127
50576 On ch=1 n=79 v=127
50608 Off ch=1 n=77 v=127
50624 On ch=1 n=81 v=127
50640 Off ch=1 n=79 v=127
50656 On ch=1 n=83 v=127
50688 Off ch=1 n=81 v=127
50688 On ch=1 n=84 v=127
50720 Off ch=1 n=83 v=127
50880 Off ch=1 n=84 v=127
50880 On ch=1 n=83 v=127
51072 Off ch=1 n=83 v=127
51072 On ch=1 n=81 v=127
51264 Off ch=1 n=81 v=127
51264 On ch=1 n=84 v=127
51456 Off ch=1 n=84 v=127
51456 On ch=1 n=83 v=127
51840 Off ch=1 n=83 v=127
51840 On ch=1 n=81 v=127
52224 Off ch=1 n=81 v=127
52224 On ch=1 n=79 v=127
52416 Off ch=1 n=79 v=127
52416 On ch=1 n=82 v=127
52800 Off ch=1 n=82 v=127
52800 On ch=1 n=81 v=127
52992 Off ch=1 n=81 v=127
52992 On ch=1 n=79 v=127
53376 Off ch=1 n=79 v=127
53760 On ch=1 n=81 v=127
54048 On ch=1 n=79 v=127
54272 Off ch=1 n=81 v=127
54304 Off ch=1 n=79 v=127
54336 On ch=1 n=77 v=127
54528 Off ch=1 n=77 v=127
54528 On ch=1 n=83 v=127
54816 On ch=1 n=81 v=127
55040 Off ch=1 n=83 v=127
55072 Off ch=1 n=81 v=127
55104 On ch=1 n=79 v=127
55296 Off ch=1 n=79 v=127
55296 On ch=1 n=84 v=127
55584 On ch=1 n=83 v=127
55808 Off ch=1 n=84 v=127
55840 Off ch=1 n=83 v=127
55872 On ch=1 n=81 v=127
56064 Off ch=1 n=81 v=127
56064 On ch=1 n=86 v=127
56352 On ch=1 n=88 v=127
56576 Off ch=1 n=86 v=127
56608 Off ch=1 n=88 v=127
56640 On ch=1 n=84 v=127
56832 Off ch=1 n=84 v=127
56832 On ch=1 n=86 v=127
57600 Off ch=1 n=86 v=127
57984 On ch=1 n=84 v=127
58368 Off ch=1 n=84 v=127
58368 On ch=1 n=83 v=127
59136 Off ch=1 n=83 v=127
59136 Meta TrkEnd
TrkEnd
MTrk
0 Meta TrkName "(---o---)"
0 Par ch=2 c=0 v=0
0 PrCh ch=2 p=0
0 KeySig 0 major
1344 On ch=2 n=67 v=127
1536 Off ch=2 n=67 v=127
1536 On ch=2 n=67 v=127
1728 On ch=2 n=67 v=127
1920 Off ch=2 n=67 v=127
1920 Off ch=2 n=67 v=127
1920 On ch=2 n=71 v=127
2112 On ch=2 n=67 v=127
2304 Off ch=2 n=71 v=127
2304 Off ch=2 n=67 v=127
2304 On ch=2 n=72 v=127
2496 On ch=2 n=67 v=127
2688 Off ch=2 n=72 v=127
2688 Off ch=2 n=67 v=127
2688 On ch=2 n=79 v=127
2880 On ch=2 n=84 v=127
3072 Off ch=2 n=79 v=127
3072 Off ch=2 n=84 v=127
3072 On ch=2 n=79 v=127
3264 Off ch=2 n=79 v=127
3264 On ch=2 n=77 v=127
3456 Off ch=2 n=77 v=127
3456 On ch=2 n=76 v=127
3648 Off ch=2 n=76 v=127
3648 On ch=2 n=77 v=127
3744 On ch=2 n=83 v=127
3840 Off ch=2 n=83 v=127
3840 On ch=2 n=81 v=127
4032 On ch=2 n=76 v=127
4224 Off ch=2 n=81 v=127
4224 Off ch=2 n=76 v=127
4224 On ch=2 n=74 v=127
4416 Off ch=2 n=77 v=127
4416 Off ch=2 n=74 v=127
4416 On ch=2 n=77 v=127
4608 Off ch=2 n=77 v=127
4800 On ch=2 n=74 v=127
4992 Off ch=2 n=74 v=127
5184 On ch=2 n=69 v=127
5376 Off ch=2 n=69 v=127
5376 On ch=2 n=77 v=127
5568 Off ch=2 n=77 v=127
5760 On ch=2 n=71 v=127
5952 Off ch=2 n=71 v=127
6144 On ch=2 n=72 v=127
6336 Off ch=2 n=72 v=127
6336 On ch=2 n=74 v=127
6528 Off ch=2 n=74 v=127
6528 On ch=2 n=76 v=127
6720 Off ch=2 n=76 v=127
6720 On ch=2 n=67 v=127
6912 Off ch=2 n=67 v=127
6912 On ch=2 n=72 v=127
7104 Off ch=2 n=72 v=127
7104 On ch=2 n=67 v=127
7296 Off ch=2 n=67 v=127
7296 On ch=2 n=69 v=127
7488 Off ch=2 n=69 v=127
7488 On ch=2 n=71 v=127
7680 Off ch=2 n=71 v=127
7680 On ch=2 n=72 v=127
8448 Off ch=2 n=72 v=127
8640 On ch=2 n=72 v=127
8832 Off ch=2 n=72 v=127
8832 On ch=2 n=71 v=127
9024 Off ch=2 n=71 v=127
9024 On ch=2 n=72 v=127
9216 Off ch=2 n=72 v=127
9216 On ch=2 n=74 v=127
9984 Off ch=2 n=74 v=127
10176 On ch=2 n=72 v=127
10368 Off ch=2 n=72 v=127
10368 On ch=2 n=71 v=127
10560 Off ch=2 n=71 v=127
10560 On ch=2 n=72 v=127
10752 Off ch=2 n=72 v=127
10752 On ch=2 n=74 v=127
10944 Off ch=2 n=74 v=127
11328 On ch=2 n=72 v=127
11520 Off ch=2 n=72 v=127
11520 On ch=2 n=71 v=127
11712 Off ch=2 n=71 v=127
11712 On ch=2 n=69 v=127
11808 Off ch=2 n=69 v=127
11808 On ch=2 n=71 v=127
11904 Off ch=2 n=71 v=127
11904 On ch=2 n=72 v=127
12096 Off ch=2 n=72 v=127
12096 On ch=2 n=71 v=127
12192 Off ch=2 n=71 v=127
12192 On ch=2 n=72 v=127
12288 Off ch=2 n=72 v=127
12288 On ch=2 n=74 v=127
12672 Off ch=2 n=74 v=127
12864 On ch=2 n=74 v=127
13248 Off ch=2 n=74 v=127
13632 On ch=2 n=76 v=127
13728 Off ch=2 n=76 v=127
13728 On ch=2 n=72 v=127
13824 Off ch=2 n=72 v=127
13824 On ch=2 n=74 v=127
14208 Off ch=2 n=74 v=127
14400 On ch=2 n=74 v=127
14592 Off ch=2 n=74 v=127
14592 On ch=2 n=72 v=127
14976 Off ch=2 n=72 v=127
14976 On ch=2 n=71 v=127
15168 Off ch=2 n=71 v=127
15168 On ch=2 n=69 v=127
15360 Off ch=2 n=69 v=127
15360 On ch=2 n=69 v=127
15552 Off ch=2 n=69 v=127
15552 On ch=2 n=72 v=127
15744 Off ch=2 n=72 v=127
15936 On ch=2 n=72 v=127
16128 Off ch=2 n=72 v=127
16128 On ch=2 n=71 v=127
16320 Off ch=2 n=71 v=127
16320 On ch=2 n=69 v=127
16416 Off ch=2 n=69 v=127
16416 On ch=2 n=71 v=127
16512 Off ch=2 n=71 v=127
16512 On ch=2 n=69 v=127
16704 Off ch=2 n=69 v=127
16704 On ch=2 n=71 v=127
16896 Off ch=2 n=71 v=127
16896 On ch=2 n=72 v=127
17088 Off ch=2 n=72 v=127
17472 On ch=2 n=72 v=127
17664 Off ch=2 n=72 v=127
17664 On ch=2 n=69 v=127
17856 Off ch=2 n=69 v=127
17856 On ch=2 n=71 v=127
18048 Off ch=2 n=71 v=127
18048 On ch=2 n=71 v=127
18240 Off ch=2 n=71 v=127
18240 On ch=2 n=69 v=127
18432 Off ch=2 n=69 v=127
18432 On ch=2 n=72 v=127
18624 Off ch=2 n=72 v=127
18816 On ch=2 n=69 v=127
19008 Off ch=2 n=69 v=127
19008 On ch=2 n=71 v=127
19104 Off ch=2 n=71 v=127
19104 On ch=2 n=72 v=127
19200 Off ch=2 n=72 v=127
19200 On ch=2 n=71 v=127
19392 Off ch=2 n=71 v=127
19392 On ch=2 n=74 v=127
19584 Off ch=2 n=74 v=127
19776 On ch=2 n=71 v=127
19968 Off ch=2 n=71 v=127
19968 On ch=2 n=72 v=127
20160 Off ch=2 n=72 v=127
20352 On ch=2 n=71 v=127
20448 Off ch=2 n=71 v=127
20448 On ch=2 n=72 v=127
20544 Off ch=2 n=72 v=127
20544 On ch=2 n=74 v=127
20640 Off ch=2 n=74 v=127
20640 On ch=2 n=71 v=127
20736 Off ch=2 n=71 v=127
20736 On ch=2 n=72 v=127
21120 Off ch=2 n=72 v=127
21504 On ch=2 n=77 v=127
21696 Off ch=2 n=77 v=127
22080 On ch=2 n=79 v=127
22272 Off ch=2 n=79 v=127
22464 On ch=2 n=77 v=127
22560 Off ch=2 n=77 v=127
22560 On ch=2 n=79 v=127
22656 Off ch=2 n=79 v=127
22656 On ch=2 n=77 v=127
22752 Off ch=2 n=77 v=127
23040 On ch=2 n=76 v=127
23232 Off ch=2 n=76 v=127
23616 On ch=2 n=77 v=127
23808 Off ch=2 n=77 v=127
23808 On ch=2 n=76 v=127
24192 Off ch=2 n=76 v=127
24576 On ch=2 n=69 v=127
24960 Off ch=2 n=69 v=127
24960 On ch=2 n=74 v=127
25344 Off ch=2 n=74 v=127
25344 On ch=2 n=71 v=127
25728 Off ch=2 n=71 v=127
25728 On ch=2 n=76 v=127
26112 Off ch=2 n=76 v=127
26112 On ch=2 n=72 v=127
26496 Off ch=2 n=72 v=127
26496 On ch=2 n=77 v=127
26880 Off ch=2 n=77 v=127
26880 On ch=2 n=74 v=127
27264 Off ch=2 n=74 v=127
27264 On ch=2 n=78 v=127
27648 Off ch=2 n=78 v=127
27648 On ch=2 n=79 v=127
30208 Off ch=2 n=79 v=127
30720 On ch=2 n=67 v=127
30912 On ch=2 n=67 v=127
31104 Off ch=2 n=67 v=127
31104 Off ch=2 n=67 v=127
31104 On ch=2 n=71 v=127
31296 On ch=2 n=67 v=127
31488 Off ch=2 n=71 v=127
31488 Off ch=2 n=67 v=127
31488 On ch=2 n=72 v=127
31680 On ch=2 n=67 v=127
31872 Off ch=2 n=72 v=127
31872 Off ch=2 n=67 v=127
31872 On ch=2 n=79 v=127
32064 On ch=2 n=84 v=127
32256 Off ch=2 n=79 v=127
32256 Off ch=2 n=84 v=127
32256 On ch=2 n=79 v=127
32448 Off ch=2 n=79 v=127
32448 On ch=2 n=77 v=127
32640 Off ch=2 n=77 v=127
32640 On ch=2 n=76 v=127
32832 Off ch=2 n=76 v=127
32832 On ch=2 n=77 v=127
32928 On ch=2 n=83 v=127
33024 Off ch=2 n=83 v=127
33024 On ch=2 n=81 v=127
33216 On ch=2 n=76 v=127
33408 Off ch=2 n=81 v=127
33408 Off ch=2 n=76 v=127
33408 On ch=2 n=74 v=127
33600 Off ch=2 n=77 v=127
33600 Off ch=2 n=74 v=127
33600 On ch=2 n=77 v=127
33792 Off ch=2 n=77 v=127
33984 On ch=2 n=74 v=127
34176 Off ch=2 n=74 v=127
34368 On ch=2 n=69 v=127
34560 Off ch=2 n=69 v=127
34560 On ch=2 n=77 v=127
34752 Off ch=2 n=77 v=127
34944 On ch=2 n=71 v=127
35136 Off ch=2 n=71 v=127
35328 On ch=2 n=72 v=127
35520 Off ch=2 n=72 v=127
35520 On ch=2 n=74 v=127
35712 Off ch=2 n=74 v=127
35712 On ch=2 n=76 v=127
35904 Off ch=2 n=76 v=127
35904 On ch=2 n=67 v=127
36096 Off ch=2 n=67 v=127
36096 On ch=2 n=72 v=127
36288 Off ch=2 n=72 v=127
36288 On ch=2 n=67 v=127
36480 Off ch=2 n=67 v=127
36480 On ch=2 n=69 v=127
36672 Off ch=2 n=69 v=127
36672 On ch=2 n=71 v=127
36864 Off ch=2 n=71 v=127
36864 On ch=2 n=72 v=127
37632 Off ch=2 n=72 v=127
37824 On ch=2 n=72 v=127
38016 Off ch=2 n=72 v=127
38016 On ch=2 n=71 v=127
38208 Off ch=2 n=71 v=127
38208 On ch=2 n=72 v=127
38400 Off ch=2 n=72 v=127
38400 On ch=2 n=74 v=127
39168 Off ch=2 n=74 v=127
39360 On ch=2 n=72 v=127
39552 Off ch=2 n=72 v=127
39552 On ch=2 n=71 v=127
39744 Off ch=2 n=71 v=127
39744 On ch=2 n=72 v=127
39936 Off ch=2 n=72 v=127
39936 On ch=2 n=74 v=127
40128 Off ch=2 n=74 v=127
40512 On ch=2 n=72 v=127
40704 Off ch=2 n=72 v=127
40704 On ch=2 n=71 v=127
40896 Off ch=2 n=71 v=127
40896 On ch=2 n=69 v=127
40992 Off ch=2 n=69 v=127
40992 On ch=2 n=71 v=127
41088 Off ch=2 n=71 v=127
41088 On ch=2 n=72 v=127
41280 Off ch=2 n=72 v=127
41280 On ch=2 n=71 v=127
41376 Off ch=2 n=71 v=127
41376 On ch=2 n=72 v=127
41472 Off ch=2 n=72 v=127
41472 On ch=2 n=74 v=127
41856 Off ch=2 n=74 v=127
42048 On ch=2 n=74 v=127
42432 Off ch=2 n=74 v=127
42816 On ch=2 n=76 v=127
42912 Off ch=2 n=76 v=127
42912 On ch=2 n=72 v=127
43008 Off ch=2 n=72 v=127
43008 On ch=2 n=74 v=127
43392 Off ch=2 n=74 v=127
43584 On ch=2 n=74 v=127
43776 Off ch=2 n=74 v=127
43776 On ch=2 n=72 v=127
44160 Off ch=2 n=72 v=127
44160 On ch=2 n=71 v=127
44352 Off ch=2 n=71 v=127
44352 On ch=2 n=69 v=127
44544 Off ch=2 n=69 v=127
44544 On ch=2 n=69 v=127
44736 Off ch=2 n=69 v=127
44736 On ch=2 n=72 v=127
44928 Off ch=2 n=72 v=127
45120 On ch=2 n=72 v=127
45312 Off ch=2 n=72 v=127
45312 On ch=2 n=71 v=127
45504 Off ch=2 n=71 v=127
45504 On ch=2 n=69 v=127
45600 Off ch=2 n=69 v=127
45600 On ch=2 n=71 v=127
45696 Off ch=2 n=71 v=127
45696 On ch=2 n=69 v=127
45888 Off ch=2 n=69 v=127
45888 On ch=2 n=71 v=127
46080 Off ch=2 n=71 v=127
46080 On ch=2 n=72 v=127
46272 Off ch=2 n=72 v=127
46656 On ch=2 n=72 v=127
46848 Off ch=2 n=72 v=127
46848 On ch=2 n=69 v=127
47040 Off ch=2 n=69 v=127
47040 On ch=2 n=71 v=127
47232 Off ch=2 n=71 v=127
47232 On ch=2 n=71 v=127
47424 Off ch=2 n=71 v=127
47424 On ch=2 n=69 v=127
47616 Off ch=2 n=69 v=127
47616 On ch=2 n=72 v=127
47808 Off ch=2 n=72 v=127
48000 On ch=2 n=69 v=127
48192 Off ch=2 n=69 v=127
48192 On ch=2 n=71 v=127
48288 Off ch=2 n=71 v=127
48288 On ch=2 n=72 v=127
48384 Off ch=2 n=72 v=127
48384 On ch=2 n=71 v=127
48576 Off ch=2 n=71 v=127
48576 On ch=2 n=74 v=127
48768 Off ch=2 n=74 v=127
48960 On ch=2 n=71 v=127
49152 Off ch=2 n=71 v=127
49152 On ch=2 n=72 v=127
49344 Off ch=2 n=72 v=127
49536 On ch=2 n=71 v=127
49632 Off ch=2 n=71 v=127
49632 On ch=2 n=72 v=127
49728 Off ch=2 n=72 v=127
49728 On ch=2 n=74 v=127
49824 Off ch=2 n=74 v=127
49824 On ch=2 n=71 v=127
49920 Off ch=2 n=71 v=127
49920 On ch=2 n=72 v=127
50304 Off ch=2 n=72 v=127
50688 On ch=2 n=77 v=127
50880 Off ch=2 n=77 v=127
51264 On ch=2 n=79 v=127
51456 Off ch=2 n=79 v=127
51648 On ch=2 n=77 v=127
51744 Off ch=2 n=77 v=127
51744 On ch=2 n=79 v=127
51840 Off ch=2 n=79 v=127
51840 On ch=2 n=77 v=127
51936 Off ch=2 n=77 v=127
52224 On ch=2 n=76 v=127
52416 Off ch=2 n=76 v=127
52800 On ch=2 n=77 v=127
52992 Off ch=2 n=77 v=127
52992 On ch=2 n=76 v=127
53376 Off ch=2 n=76 v=127
53760 On ch=2 n=69 v=127
54144 Off ch=2 n=69 v=127
54144 On ch=2 n=74 v=127
54528 Off ch=2 n=74 v=127
54528 On ch=2 n=71 v=127
54912 Off ch=2 n=71 v=127
54912 On ch=2 n=76 v=127
55296 Off ch=2 n=76 v=127
55296 On ch=2 n=72 v=127
55680 Off ch=2 n=72 v=127
55680 On ch=2 n=77 v=127
56064 Off ch=2 n=77 v=127
56064 On ch=2 n=74 v=127
56448 Off ch=2 n=74 v=127
56448 On ch=2 n=78 v=127
56832 Off ch=2 n=78 v=127
56832 On ch=2 n=79 v=127
59392 Off ch=2 n=79 v=127
59392 Meta TrkEnd
TrkEnd
MTrk
0 Meta TrkName "(---o---)"
0 Par ch=3 c=0 v=0
0 PrCh ch=3 p=0
0 KeySig 0 major
1536 On ch=3 n=36 v=127
1632 Off ch=3 n=36 v=127
1728 On ch=3 n=43 v=127
1824 Off ch=3 n=43 v=127
1920 On ch=3 n=31 v=127
2016 Off ch=3 n=31 v=127
2112 On ch=3 n=43 v=127
2208 Off ch=3 n=43 v=127
2304 On ch=3 n=36 v=127
2400 Off ch=3 n=36 v=127
2496 On ch=3 n=43 v=127
2592 Off ch=3 n=43 v=127
2688 On ch=3 n=36 v=127
2784 Off ch=3 n=36 v=127
2880 On ch=3 n=48 v=127
2976 Off ch=3 n=48 v=127
3072 On ch=3 n=41 v=127
3168 Off ch=3 n=41 v=127
3264 On ch=3 n=48 v=127
3360 Off ch=3 n=48 v=127
3456 On ch=3 n=36 v=127
3552 Off ch=3 n=36 v=127
3648 On ch=3 n=48 v=127
3744 Off ch=3 n=48 v=127
3840 On ch=3 n=41 v=127
3936 Off ch=3 n=41 v=127
4032 On ch=3 n=48 v=127
4128 Off ch=3 n=48 v=127
4224 On ch=3 n=40 v=127
4320 Off ch=3 n=40 v=127
4416 On ch=3 n=47 v=127
4512 Off ch=3 n=47 v=127
4608 On ch=3 n=38 v=127
4736 Off ch=3 n=38 v=127
4800 On ch=3 n=45 v=127
4928 Off ch=3 n=45 v=127
4992 On ch=3 n=33 v=127
5120 Off ch=3 n=33 v=127
5184 On ch=3 n=45 v=127
5312 Off ch=3 n=45 v=127
5376 On ch=3 n=38 v=127
5504 Off ch=3 n=38 v=127
5568 On ch=3 n=45 v=127
5696 Off ch=3 n=45 v=127
5760 On ch=3 n=41 v=127
5888 Off ch=3 n=41 v=127
5952 On ch=3 n=43 v=127
6080 Off ch=3 n=43 v=127
6144 On ch=3 n=40 v=127
6272 Off ch=3 n=40 v=127
6336 On ch=3 n=43 v=127
6464 Off ch=3 n=43 v=127
6528 On ch=3 n=36 v=127
6656 Off ch=3 n=36 v=127
6720 On ch=3 n=43 v=127
6848 Off ch=3 n=43 v=127
6912 On ch=3 n=40 v=127
7040 Off ch=3 n=40 v=127
7104 On ch=3 n=43 v=127
7232 Off ch=3 n=43 v=127
7296 On ch=3 n=40 v=127
7424 Off ch=3 n=40 v=127
7488 On ch=3 n=43 v=127
7616 Off ch=3 n=43 v=127
7680 On ch=3 n=41 v=127
7808 Off ch=3 n=41 v=127
7872 On ch=3 n=45 v=127
8000 Off ch=3 n=45 v=127
8064 On ch=3 n=36 v=127
8192 Off ch=3 n=36 v=127
8256 On ch=3 n=45 v=127
8384 Off ch=3 n=45 v=127
8448 On ch=3 n=41 v=127
8576 Off ch=3 n=41 v=127
8640 On ch=3 n=45 v=127
8768 Off ch=3 n=45 v=127
8832 On ch=3 n=48 v=127
8960 Off ch=3 n=48 v=127
9024 On ch=3 n=45 v=127
9152 Off ch=3 n=45 v=127
9216 On ch=3 n=40 v=127
9344 Off ch=3 n=40 v=127
9408 On ch=3 n=43 v=127
9536 Off ch=3 n=43 v=127
9600 On ch=3 n=36 v=127
9728 Off ch=3 n=36 v=127
9792 On ch=3 n=43 v=127
9920 Off ch=3 n=43 v=127
9984 On ch=3 n=40 v=127
10112 Off ch=3 n=40 v=127
10176 On ch=3 n=43 v=127
10304 Off ch=3 n=43 v=127
10368 On ch=3 n=40 v=127
10496 Off ch=3 n=40 v=127
10560 On ch=3 n=43 v=127
10688 Off ch=3 n=43 v=127
10752 On ch=3 n=38 v=127
10880 Off ch=3 n=38 v=127
10944 On ch=3 n=41 v=127
11072 Off ch=3 n=41 v=127
11136 On ch=3 n=33 v=127
11264 Off ch=3 n=33 v=127
11328 On ch=3 n=41 v=127
11456 Off ch=3 n=41 v=127
11520 On ch=3 n=38 v=127
11648 Off ch=3 n=38 v=127
11712 On ch=3 n=41 v=127
11840 Off ch=3 n=41 v=127
11904 On ch=3 n=38 v=127
12032 Off ch=3 n=38 v=127
12096 On ch=3 n=41 v=127
12224 Off ch=3 n=41 v=127
12288 On ch=3 n=43 v=127
12416 Off ch=3 n=43 v=127
12480 On ch=3 n=35 v=127
12608 Off ch=3 n=35 v=127
12672 On ch=3 n=38 v=127
12800 Off ch=3 n=38 v=127
12864 On ch=3 n=43 v=127
12992 Off ch=3 n=43 v=127
13056 On ch=3 n=38 v=127
13184 Off ch=3 n=38 v=127
13248 On ch=3 n=43 v=127
13376 Off ch=3 n=43 v=127
13440 On ch=3 n=38 v=127
13568 Off ch=3 n=38 v=127
13632 On ch=3 n=43 v=127
13760 Off ch=3 n=43 v=127
13824 On ch=3 n=38 v=127
13952 Off ch=3 n=38 v=127
14016 On ch=3 n=35 v=127
14144 Off ch=3 n=35 v=127
14208 On ch=3 n=38 v=127
14336 Off ch=3 n=38 v=127
14400 On ch=3 n=43 v=127
14528 Off ch=3 n=43 v=127
14592 On ch=3 n=38 v=127
14720 Off ch=3 n=38 v=127
14784 On ch=3 n=43 v=127
14912 Off ch=3 n=43 v=127
14976 On ch=3 n=38 v=127
15104 Off ch=3 n=38 v=127
15168 On ch=3 n=43 v=127
15296 Off ch=3 n=43 v=127
15360 On ch=3 n=38 v=127
15488 Off ch=3 n=38 v=127
15552 On ch=3 n=41 v=127
15680 Off ch=3 n=41 v=127
15744 On ch=3 n=33 v=127
15872 Off ch=3 n=33 v=127
15936 On ch=3 n=41 v=127
16064 Off ch=3 n=41 v=127
16128 On ch=3 n=38 v=127
16256 Off ch=3 n=38 v=127
16320 On ch=3 n=41 v=127
16448 Off ch=3 n=41 v=127
16512 On ch=3 n=38 v=127
16640 Off ch=3 n=38 v=127
16704 On ch=3 n=41 v=127
16832 Off ch=3 n=41 v=127
16896 On ch=3 n=40 v=127
17024 Off ch=3 n=40 v=127
17088 On ch=3 n=43 v=127
17216 Off ch=3 n=43 v=127
17280 On ch=3 n=36 v=127
17408 Off ch=3 n=36 v=127
17472 On ch=3 n=43 v=127
17600 Off ch=3 n=43 v=127
17664 On ch=3 n=40 v=127
17792 Off ch=3 n=40 v=127
17856 On ch=3 n=43 v=127
17984 Off ch=3 n=43 v=127
18048 On ch=3 n=40 v=127
18176 Off ch=3 n=40 v=127
18240 On ch=3 n=43 v=127
18368 Off ch=3 n=43 v=127
18432 On ch=3 n=38 v=127
18560 Off ch=3 n=38 v=127
18624 On ch=3 n=41 v=127
18752 Off ch=3 n=41 v=127
18816 On ch=3 n=33 v=127
18944 Off ch=3 n=33 v=127
19008 On ch=3 n=41 v=127
19136 Off ch=3 n=41 v=127
19200 On ch=3 n=41 v=127
19328 Off ch=3 n=41 v=127
19392 On ch=3 n=40 v=127
19520 Off ch=3 n=40 v=127
19584 On ch=3 n=38 v=127
19712 Off ch=3 n=38 v=127
19776 On ch=3 n=41 v=127
19904 Off ch=3 n=41 v=127
19968 On ch=3 n=40 v=127
20096 Off ch=3 n=40 v=127
20160 On ch=3 n=31 v=127
20288 Off ch=3 n=31 v=127
20352 On ch=3 n=43 v=127
20480 Off ch=3 n=43 v=127
20544 On ch=3 n=31 v=127
20672 Off ch=3 n=31 v=127
20736 On ch=3 n=40 v=127
20864 Off ch=3 n=40 v=127
20928 On ch=3 n=43 v=127
21056 Off ch=3 n=43 v=127
21120 On ch=3 n=40 v=127
21248 Off ch=3 n=40 v=127
21312 On ch=3 n=43 v=127
21440 Off ch=3 n=43 v=127
21504 On ch=3 n=41 v=127
21632 Off ch=3 n=41 v=127
21696 On ch=3 n=45 v=127
21824 Off ch=3 n=45 v=127
21888 On ch=3 n=36 v=127
22016 Off ch=3 n=36 v=127
22080 On ch=3 n=45 v=127
22208 Off ch=3 n=45 v=127
22272 On ch=3 n=41 v=127
22400 Off ch=3 n=41 v=127
22464 On ch=3 n=45 v=127
22592 Off ch=3 n=45 v=127
22656 On ch=3 n=45 v=127
22784 Off ch=3 n=45 v=127
22848 On ch=3 n=41 v=127
22976 Off ch=3 n=41 v=127
23040 On ch=3 n=43 v=127
23168 Off ch=3 n=43 v=127
23232 On ch=3 n=46 v=127
23360 Off ch=3 n=46 v=127
23424 On ch=3 n=38 v=127
23552 Off ch=3 n=38 v=127
23616 On ch=3 n=46 v=127
23744 Off ch=3 n=46 v=127
23808 On ch=3 n=43 v=127
23936 Off ch=3 n=43 v=127
24000 On ch=3 n=46 v=127
24128 Off ch=3 n=46 v=127
24192 On ch=3 n=46 v=127
24320 Off ch=3 n=46 v=127
24384 On ch=3 n=43 v=127
24512 Off ch=3 n=43 v=127
24576 On ch=3 n=41 v=127
24704 Off ch=3 n=41 v=127
24768 On ch=3 n=33 v=127
24896 Off ch=3 n=33 v=127
24960 On ch=3 n=36 v=127
25088 Off ch=3 n=36 v=127
25152 On ch=3 n=41 v=127
25280 Off ch=3 n=41 v=127
25344 On ch=3 n=43 v=127
25472 Off ch=3 n=43 v=127
25536 On ch=3 n=35 v=127
25664 Off ch=3 n=35 v=127
25728 On ch=3 n=38 v=127
25856 Off ch=3 n=38 v=127
25920 On ch=3 n=43 v=127
26048 Off ch=3 n=43 v=127
26112 On ch=3 n=45 v=127
26240 Off ch=3 n=45 v=127
26304 On ch=3 n=38 v=127
26432 Off ch=3 n=38 v=127
26496 On ch=3 n=40 v=127
26624 Off ch=3 n=40 v=127
26688 On ch=3 n=45 v=127
26816 Off ch=3 n=45 v=127
26880 On ch=3 n=47 v=127
27008 Off ch=3 n=47 v=127
27072 On ch=3 n=40 v=127
27200 Off ch=3 n=40 v=127
27264 On ch=3 n=48 v=127
27392 Off ch=3 n=48 v=127
27456 On ch=3 n=40 v=127
27584 Off ch=3 n=40 v=127
27648 On ch=3 n=43 v=127
27776 Off ch=3 n=43 v=127
27840 On ch=3 n=48 v=127
27968 Off ch=3 n=48 v=127
28032 On ch=3 n=43 v=127
28160 Off ch=3 n=43 v=127
28224 On ch=3 n=48 v=127
28352 Off ch=3 n=48 v=127
28416 On ch=3 n=43 v=127
28544 Off ch=3 n=43 v=127
28608 On ch=3 n=48 v=127
28736 Off ch=3 n=48 v=127
28800 On ch=3 n=43 v=127
28928 Off ch=3 n=43 v=127
28992 On ch=3 n=48 v=127
29120 Off ch=3 n=48 v=127
29184 On ch=3 n=43 v=127
29312 Off ch=3 n=43 v=127
29376 On ch=3 n=47 v=127
29504 Off ch=3 n=47 v=127
29568 On ch=3 n=43 v=127
29696 Off ch=3 n=43 v=127
29760 On ch=3 n=47 v=127
29888 Off ch=3 n=47 v=127
29952 On ch=3 n=41 v=127
30080 Off ch=3 n=41 v=127
30144 On ch=3 n=45 v=127
30272 Off ch=3 n=45 v=127
30336 On ch=3 n=40 v=127
30464 Off ch=3 n=40 v=127
30528 On ch=3 n=43 v=127
30656 Off ch=3 n=43 v=127
30720 On ch=3 n=36 v=127
30816 Off ch=3 n=36 v=127
30912 On ch=3 n=43 v=127
31008 Off ch=3 n=43 v=127
31104 On ch=3 n=31 v=127
31200 Off ch=3 n=31 v=127
31296 On ch=3 n=43 v=127
31392 Off ch=3 n=43 v=127
31488 On ch=3 n=36 v=127
31584 Off ch=3 n=36 v=127
31680 On ch=3 n=43 v=127
31776 Off ch=3 n=43 v=127
31872 On ch=3 n=36 v=127
31968 Off ch=3 n=36 v=127
32064 On ch=3 n=48 v=127
32160 Off ch=3 n=48 v=127
32256 On ch=3 n=41 v=127
32352 Off ch=3 n=41 v=127
32448 On ch=3 n=48 v=127
32544 Off ch=3 n=48 v=127
32640 On ch=3 n=36 v=127
32736 Off ch=3 n=36 v=127
32832 On ch=3 n=48 v=127
32928 Off ch=3 n=48 v=127
33024 On ch=3 n=41 v=127
33120 Off ch=3 n=41 v=127
33216 On ch=3 n=48 v=127
33312 Off ch=3 n=48 v=127
33408 On ch=3 n=40 v=127
33504 Off ch=3 n=40 v=127
33600 On ch=3 n=47 v=127
33696 Off ch=3 n=47 v=127
33792 On ch=3 n=38 v=127
33920 Off ch=3 n=38 v=127
33984 On ch=3 n=45 v=127
34112 Off ch=3 n=45 v=127
34176 On ch=3 n=33 v=127
34304 Off ch=3 n=33 v=127
34368 On ch=3 n=45 v=127
34496 Off ch=3 n=45 v=127
34560 On ch=3 n=38 v=127
34688 Off ch=3 n=38 v=127
34752 On ch=3 n=45 v=127
34880 Off ch=3 n=45 v=127
34944 On ch=3 n=41 v=127
35072 Off ch=3 n=41 v=127
35136 On ch=3 n=43 v=127
35264 Off ch=3 n=43 v=127
35328 On ch=3 n=40 v=127
35456 Off ch=3 n=40 v=127
35520 On ch=3 n=43 v=127
35648 Off ch=3 n=43 v=127
35712 On ch=3 n=36 v=127
35840 Off ch=3 n=36 v=127
35904 On ch=3 n=43 v=127
36032 Off ch=3 n=43 v=127
36096 On ch=3 n=40 v=127
36224 Off ch=3 n=40 v=127
36288 On ch=3 n=43 v=127
36416 Off ch=3 n=43 v=127
36480 On ch=3 n=40 v=127
36608 Off ch=3 n=40 v=127
36672 On ch=3 n=43 v=127
36800 Off ch=3 n=43 v=127
36864 On ch=3 n=41 v=127
36992 Off ch=3 n=41 v=127
37056 On ch=3 n=45 v=127
37184 Off ch=3 n=45 v=127
37248 On ch=3 n=36 v=127
37376 Off ch=3 n=36 v=127
37440 On ch=3 n=45 v=127
37568 Off ch=3 n=45 v=127
37632 On ch=3 n=41 v=127
37760 Off ch=3 n=41 v=127
37824 On ch=3 n=45 v=127
37952 Off ch=3 n=45 v=127
38016 On ch=3 n=48 v=127
38144 Off ch=3 n=48 v=127
38208 On ch=3 n=45 v=127
38336 Off ch=3 n=45 v=127
38400 On ch=3 n=40 v=127
38528 Off ch=3 n=40 v=127
38592 On ch=3 n=43 v=127
38720 Off ch=3 n=43 v=127
38784 On ch=3 n=36 v=127
38912 Off ch=3 n=36 v=127
38976 On ch=3 n=43 v=127
39104 Off ch=3 n=43 v=127
39168 On ch=3 n=40 v=127
39296 Off ch=3 n=40 v=127
39360 On ch=3 n=43 v=127
39488 Off ch=3 n=43 v=127
39552 On ch=3 n=40 v=127
39680 Off ch=3 n=40 v=127
39744 On ch=3 n=43 v=127
39872 Off ch=3 n=43 v=127
39936 On ch=3 n=38 v=127
40064 Off ch=3 n=38 v=127
40128 On ch=3 n=41 v=127
40256 Off ch=3 n=41 v=127
40320 On ch=3 n=33 v=127
40448 Off ch=3 n=33 v=127
40512 On ch=3 n=41 v=127
40640 Off ch=3 n=41 v=127
40704 On ch=3 n=38 v=127
40832 Off ch=3 n=38 v=127
40896 On ch=3 n=41 v=127
41024 Off ch=3 n=41 v=127
41088 On ch=3 n=38 v=127
41216 Off ch=3 n=38 v=127
41280 On ch=3 n=41 v=127
41408 Off ch=3 n=41 v=127
41472 On ch=3 n=43 v=127
41600 Off ch=3 n=43 v=127
41664 On ch=3 n=35 v=127
41792 Off ch=3 n=35 v=127
41856 On ch=3 n=38 v=127
41984 Off ch=3 n=38 v=127
42048 On ch=3 n=43 v=127
42176 Off ch=3 n=43 v=127
42240 On ch=3 n=38 v=127
42368 Off ch=3 n=38 v=127
42432 On ch=3 n=43 v=127
42560 Off ch=3 n=43 v=127
42624 On ch=3 n=38 v=127
42752 Off ch=3 n=38 v=127
42816 On ch=3 n=43 v=127
42944 Off ch=3 n=43 v=127
43008 On ch=3 n=38 v=127
43136 Off ch=3 n=38 v=127
43200 On ch=3 n=35 v=127
43328 Off ch=3 n=35 v=127
43392 On ch=3 n=38 v=127
43520 Off ch=3 n=38 v=127
43584 On ch=3 n=43 v=127
43712 Off ch=3 n=43 v=127
43776 On ch=3 n=38 v=127
43904 Off ch=3 n=38 v=127
43968 On ch=3 n=43 v=127
44096 Off ch=3 n=43 v=127
44160 On ch=3 n=38 v=127
44288 Off ch=3 n=38 v=127
44352 On ch=3 n=43 v=127
44480 Off ch=3 n=43 v=127
44544 On ch=3 n=38 v=127
44672 Off ch=3 n=38 v=127
44736 On ch=3 n=41 v=127
44864 Off ch=3 n=41 v=127
44928 On ch=3 n=33 v=127
45056 Off ch=3 n=33 v=127
45120 On ch=3 n=41 v=127
45248 Off ch=3 n=41 v=127
45312 On ch=3 n=38 v=127
45440 Off ch=3 n=38 v=127
45504 On ch=3 n=41 v=127
45632 Off ch=3 n=41 v=127
45696 On ch=3 n=38 v=127
45824 Off ch=3 n=38 v=127
45888 On ch=3 n=41 v=127
46016 Off ch=3 n=41 v=127
46080 On ch=3 n=40 v=127
46208 Off ch=3 n=40 v=127
46272 On ch=3 n=43 v=127
46400 Off ch=3 n=43 v=127
46464 On ch=3 n=36 v=127
46592 Off ch=3 n=36 v=127
46656 On ch=3 n=43 v=127
46784 Off ch=3 n=43 v=127
46848 On ch=3 n=40 v=127
46976 Off ch=3 n=40 v=127
47040 On ch=3 n=43 v=127
47168 Off ch=3 n=43 v=127
47232 On ch=3 n=40 v=127
47360 Off ch=3 n=40 v=127
47424 On ch=3 n=43 v=127
47552 Off ch=3 n=43 v=127
47616 On ch=3 n=38 v=127
47744 Off ch=3 n=38 v=127
47808 On ch=3 n=41 v=127
47936 Off ch=3 n=41 v=127
48000 On ch=3 n=33 v=127
48128 Off ch=3 n=33 v=127
48192 On ch=3 n=41 v=127
48320 Off ch=3 n=41 v=127
48384 On ch=3 n=41 v=127
48512 Off ch=3 n=41 v=127
48576 On ch=3 n=40 v=127
48704 Off ch=3 n=40 v=127
48768 On ch=3 n=38 v=127
48896 Off ch=3 n=38 v=127
48960 On ch=3 n=41 v=127
49088 Off ch=3 n=41 v=127
49152 On ch=3 n=40 v=127
49280 Off ch=3 n=40 v=127
49344 On ch=3 n=31 v=127
49472 Off ch=3 n=31 v=127
49536 On ch=3 n=43 v=127
49664 Off ch=3 n=43 v=127
49728 On ch=3 n=31 v=127
49856 Off ch=3 n=31 v=127
49920 On ch=3 n=40 v=127
50048 Off ch=3 n=40 v=127
50112 On ch=3 n=43 v=127
50240 Off ch=3 n=43 v=127
50304 On ch=3 n=40 v=127
50432 Off ch=3 n=40 v=127
50496 On ch=3 n=43 v=127
50624 Off ch=3 n=43 v=127
50688 On ch=3 n=41 v=127
50816 Off ch=3 n=41 v=127
50880 On ch=3 n=45 v=127
51008 Off ch=3 n=45 v=127
51072 On ch=3 n=36 v=127
51200 Off ch=3 n=36 v=127
51264 On ch=3 n=45 v=127
51392 Off ch=3 n=45 v=127
51456 On ch=3 n=41 v=127
51584 Off ch=3 n=41 v=127
51648 On ch=3 n=45 v=127
51776 Off ch=3 n=45 v=127
51840 On ch=3 n=45 v=127
51968 Off ch=3 n=45 v=127
52032 On ch=3 n=41 v=127
52160 Off ch=3 n=41 v=127
52224 On ch=3 n=43 v=127
52352 Off ch=3 n=43 v=127
52416 On ch=3 n=46 v=127
52544 Off ch=3 n=46 v=127
52608 On ch=3 n=38 v=127
52736 Off ch=3 n=38 v=127
52800 On ch=3 n=46 v=127
52928 Off ch=3 n=46 v=127
52992 On ch=3 n=43 v=127
53120 Off ch=3 n=43 v=127
53184 On ch=3 n=46 v=127
53312 Off ch=3 n=46 v=127
53376 On ch=3 n=46 v=127
53504 Off ch=3 n=46 v=127
53568 On ch=3 n=43 v=127
53696 Off ch=3 n=43 v=127
53760 On ch=3 n=41 v=127
53888 Off ch=3 n=41 v=127
53952 On ch=3 n=33 v=127
54080 Off ch=3 n=33 v=127
54144 On ch=3 n=36 v=127
54272 Off ch=3 n=36 v=127
54336 On ch=3 n=41 v=127
54464 Off ch=3 n=41 v=127
54528 On ch=3 n=43 v=127
54656 Off ch=3 n=43 v=127
54720 On ch=3 n=35 v=127
54848 Off ch=3 n=35 v=127
54912 On ch=3 n=38 v=127
55040 Off ch=3 n=38 v=127
55104 On ch=3 n=43 v=127
55232 Off ch=3 n=43 v=127
55296 On ch=3 n=45 v=127
55424 Off ch=3 n=45 v=127
55488 On ch=3 n=38 v=127
55616 Off ch=3 n=38 v=127
55680 On ch=3 n=40 v=127
55808 Off ch=3 n=40 v=127
55872 On ch=3 n=45 v=127
56000 Off ch=3 n=45 v=127
56064 On ch=3 n=47 v=127
56192 Off ch=3 n=47 v=127
56256 On ch=3 n=40 v=127
56384 Off ch=3 n=40 v=127
56448 On ch=3 n=48 v=127
56576 Off ch=3 n=48 v=127
56640 On ch=3 n=40 v=127
56768 Off ch=3 n=40 v=127
56832 On ch=3 n=43 v=127
56960 Off ch=3 n=43 v=127
57024 On ch=3 n=48 v=127
57152 Off ch=3 n=48 v=127
57216 On ch=3 n=43 v=127
57344 Off ch=3 n=43 v=127
57408 On ch=3 n=48 v=127
57536 Off ch=3 n=48 v=127
57600 On ch=3 n=43 v=127
57728 Off ch=3 n=43 v=127
57792 On ch=3 n=48 v=127
57920 Off ch=3 n=48 v=127
57984 On ch=3 n=43 v=127
58112 Off ch=3 n=43 v=127
58176 On ch=3 n=48 v=127
58304 Off ch=3 n=48 v=127
58368 On ch=3 n=43 v=127
58496 Off ch=3 n=43 v=127
58560 On ch=3 n=47 v=127
58688 Off ch=3 n=47 v=127
58752 On ch=3 n=43 v=127
58880 Off ch=3 n=43 v=127
58944 On ch=3 n=47 v=127
59072 Off ch=3 n=47 v=127
59136 On ch=3 n=41 v=127
59264 Off ch=3 n=41 v=127
59328 On ch=3 n=45 v=127
59456 Off ch=3 n=45 v=127
59520 On ch=3 n=40 v=127
59648 Off ch=3 n=40 v=127
59712 On ch=3 n=43 v=127
59840 Off ch=3 n=43 v=127
59840 Meta TrkEnd
TrkEnd
MTrk
0 Meta TrkName "---------"
0 KeySig 0 major
0 Meta TrkEnd
TrkEnd
MTrk
0 Meta TrkName "Town Fair"
0 KeySig 0 major
0 Meta TrkEnd
TrkEnd
MTrk
0 Meta TrkName "Pokémon Bicycle!"
0 KeySig 0 major
0 Meta TrkEnd
TrkEnd
MTrk
0 Meta TrkName "Sequenced by"
0 KeySig 0 major
0 Meta TrkEnd
TrkEnd
MTrk
0 Meta TrkName "Squirtlicious"
0 KeySig 0 major
0 Meta TrkEnd
TrkEnd
MTrk
0 Meta TrkName "www.members.home.net/megaman8/"
0 KeySig 0 major
0 Meta TrkEnd
TrkEnd
MTrk
0 KeySig 0 major
0 Meta TrkEnd
TrkEnd
MTrk
0 KeySig 0 major
0 Meta TrkEnd
TrkEnd
MTrk
0 KeySig 0 major
0 Meta TrkEnd
TrkEnd
MTrk
0 KeySig 0 major
0 Meta TrkEnd
TrkEnd
MTrk
0 KeySig 0 major
0 Meta TrkEnd
TrkEnd
MTrk
0 KeySig 0 major
0 Meta TrkEnd
TrkEnd
MTrk
0 KeySig 0 major
0 Meta TrkEnd
TrkEnd
MTrk
0 KeySig 0 major
0 Meta TrkEnd
TrkEnd
MTrk
0 KeySig 0 major
0 Meta TrkEnd
TrkEnd
MTrk
0 KeySig 0 major
0 Meta TrkEnd
TrkEnd
MTrk
0 KeySig 0 major
0 Meta TrkEnd
TrkEnd
MTrk
0 KeySig 0 major
0 Meta TrkEnd
TrkEnd
MTrk
0 KeySig 0 major
0 Meta TrkEnd
TrkEnd
MTrk
0 KeySig 0 major
0 Meta TrkEnd
TrkEnd
MTrk
0 KeySig 0 major
0 Meta TrkEnd
TrkEnd
MTrk
0 KeySig 0 major
0 Meta TrkEnd
TrkEnd
MTrk
0 KeySig 0 major
0 Meta TrkEnd
TrkEnd